<?xml version="1.0" encoding="UTF-8" standalone="no"?>
<svg
   xmlns:dc="http://purl.org/dc/elements/1.1/"
   xmlns:cc="http://creativecommons.org/ns#"
   xmlns:rdf="http://www.w3.org/1999/02/22-rdf-syntax-ns#"
   xmlns:svg="http://www.w3.org/2000/svg"
   xmlns="http://www.w3.org/2000/svg"
   xmlns:sodipodi="http://sodipodi.sourceforge.net/DTD/sodipodi-0.dtd"
   xmlns:inkscape="http://www.inkscape.org/namespaces/inkscape"
   width="26.180342mm"
   height="11.755706mm"
   viewBox="0 0 26.180341 11.755706"
   version="1.1"
   id="svg13"
   sodipodi:docname="shesh_band_straps.svg"
   inkscape:version="1.0.2-2 (e86c870879, 2021-01-15)">
  <metadata
     id="metadata19">
    <rdf:RDF>
      <cc:Work
         rdf:about="">
        <dc:format>image/svg+xml</dc:format>
        <dc:type
           rdf:resource="http://purl.org/dc/dcmitype/StillImage" />
      </cc:Work>
    </rdf:RDF>
  </metadata>
  <defs
     id="defs17" />
  <sodipodi:namedview
     pagecolor="#ffffff"
     bordercolor="#666666"
     borderopacity="1"
     objecttolerance="10"
     gridtolerance="10"
     guidetolerance="10"
     inkscape:pageopacity="0"
     inkscape:pageshadow="2"
     inkscape:window-width="1920"
     inkscape:window-height="1121"
     id="namedview15"
     showgrid="false"
     inkscape:zoom="12.83089"
     inkscape:cx="49.47466"
     inkscape:cy="22.215506"
     inkscape:window-x="-9"
     inkscape:window-y="-9"
     inkscape:window-maximized="1"
     inkscape:current-layer="svg13" />
  <path
     id="Sketch001_w0000"
     d="M 0,5.8778525 8.09017,0 h 10 l 8.09017,5.8778525 -8.09017,5.8778525 h -10 L 0,5.8778525"
     stroke="#000000"
     stroke-width="0.35 px"
     style="fill:#ff0000;fill-opacity:1;fill-rule:evenodd;stroke:none;stroke-width:0.35;stroke-linecap:square;stroke-miterlimit:4;stroke-dasharray:none" />
  <path
     id="Sketch001_w0001"
     d="M 4.295085,3.2830217 V 8.4726833 L 9.7307465,6.7065298 13.09017,11.330379 16.449593,6.7065298 21.885255,8.4726833 V 3.2830217 L 16.449593,5.0491752 13.09017,0.4253254 9.7307465,5.0491752 4.295085,3.2830217"
     stroke="#000000"
     stroke-width="0.35 px"
     style="fill:#80ff00;fill-opacity:1;fill-rule:evenodd;stroke:none;stroke-width:0.35;stroke-linecap:square;stroke-miterlimit:4;stroke-dasharray:none" />
  <path
     id="path852"
     style="fill:#000000;fill-opacity:1;fill-rule:evenodd;stroke:none;stroke-width:0.35;stroke-linecap:square;stroke-miterlimit:4;stroke-dasharray:none"
     d="M 4.295085,3.2830217 V 8.4726833 L 9.7307465,6.7065298 13.09017,11.330379 16.449593,6.7065298 21.885255,8.4726833 V 3.2830217 L 16.449593,5.0491752 13.09017,0.4253254 9.7307465,5.0491752 4.295085,3.2830217 m 18.09017,5.3521214 V 3.1205619 l -0.5,-0.3632713 L 16.640576,4.4613899 13.399187,0 H 12.781153 L 9.5397635,4.4613899 4.295085,2.7572906 l -0.5,0.3632713 v 5.5145812 l 0.5,0.3632713 5.2446785,-1.7040993 3.2413895,4.4613899 h 0.618034 l 3.241389,-4.4613899 5.244679,1.7040993 z" />
</svg>
