<?xml version="1.0" encoding="UTF-8" standalone="no"?>
<svg
   xmlns:dc="http://purl.org/dc/elements/1.1/"
   xmlns:cc="http://creativecommons.org/ns#"
   xmlns:rdf="http://www.w3.org/1999/02/22-rdf-syntax-ns#"
   xmlns:svg="http://www.w3.org/2000/svg"
   xmlns="http://www.w3.org/2000/svg"
   xmlns:sodipodi="http://sodipodi.sourceforge.net/DTD/sodipodi-0.dtd"
   xmlns:inkscape="http://www.inkscape.org/namespaces/inkscape"
   width="32.36068mm"
   height="30.776836mm"
   viewBox="0 0 32.36068 30.776836"
   version="1.1"
   id="svg8"
   sodipodi:docname="tabl.svg"
   inkscape:version="1.0.2-2 (e86c870879, 2021-01-15)">
  <metadata
     id="metadata14">
    <rdf:RDF>
      <cc:Work
         rdf:about="">
        <dc:format>image/svg+xml</dc:format>
        <dc:type
           rdf:resource="http://purl.org/dc/dcmitype/StillImage" />
      </cc:Work>
    </rdf:RDF>
  </metadata>
  <defs
     id="defs12" />
  <sodipodi:namedview
     pagecolor="#ffffff"
     bordercolor="#666666"
     borderopacity="1"
     objecttolerance="10"
     gridtolerance="10"
     guidetolerance="10"
     inkscape:pageopacity="0"
     inkscape:pageshadow="2"
     inkscape:window-width="1920"
     inkscape:window-height="1121"
     id="namedview10"
     showgrid="false"
     inkscape:zoom="6.4916443"
     inkscape:cx="61.154038"
     inkscape:cy="58.160953"
     inkscape:window-x="-9"
     inkscape:window-y="-9"
     inkscape:window-maximized="1"
     inkscape:current-layer="svg8" />
  <path
     id="Sketch_w0000"
     d="m 11.18034,0 h 10 l 8.09017,5.8778528 3.09017,9.5105652 -3.09017,9.510565 -8.09017,5.877853 h -10 L 3.09017,24.898983 0,15.388418 3.09017,5.8778528 11.18034,0"
     stroke="#000000"
     stroke-width="0.35 px"
     style="fill:#f90080;fill-opacity:1;fill-rule:evenodd;stroke:none;stroke-width:0.35;stroke-linecap:square;stroke-miterlimit:4;stroke-dasharray:none" />
  <path
     id="Sketch_w0002"
     style="fill:#000080;fill-opacity:1;fill-rule:evenodd;stroke:none;stroke-width:0.35;stroke-linecap:square;stroke-miterlimit:4;stroke-dasharray:none"
     d="m 25.225425,2.938927 v 9.510565 l 5.59017,7.694209 -9.045085,2.938926 -5.59017,7.694209 -5.59017,-7.694209 -9.045085,-2.938926 5.59017,-7.694209 V 2.938927 L 16.18034,5.8778528 25.225425,2.938927 M 16.18034,0 10.59017,7.6942092 1.545085,10.633135 l 5.59017,7.694209 v 9.510565 l 9.045085,-2.938926 9.045085,2.938926 V 18.327344 L 30.815595,10.633135 21.77051,7.6942092 16.18034,0" />
</svg>
