<?xml version="1.0" encoding="UTF-8" standalone="no"?>
<svg
   xmlns:dc="http://purl.org/dc/elements/1.1/"
   xmlns:cc="http://creativecommons.org/ns#"
   xmlns:rdf="http://www.w3.org/1999/02/22-rdf-syntax-ns#"
   xmlns:svg="http://www.w3.org/2000/svg"
   xmlns="http://www.w3.org/2000/svg"
   xmlns:sodipodi="http://sodipodi.sourceforge.net/DTD/sodipodi-0.dtd"
   xmlns:inkscape="http://www.inkscape.org/namespaces/inkscape"
   width="32.36068mm"
   height="30.776836mm"
   viewBox="0 0 32.36068 30.776836"
   version="1.1"
   id="svg27"
   sodipodi:docname="tabl_straps.svg"
   inkscape:version="1.0.2-2 (e86c870879, 2021-01-15)">
  <metadata
     id="metadata33">
    <rdf:RDF>
      <cc:Work
         rdf:about="">
        <dc:format>image/svg+xml</dc:format>
        <dc:type
           rdf:resource="http://purl.org/dc/dcmitype/StillImage" />
      </cc:Work>
    </rdf:RDF>
  </metadata>
  <defs
     id="defs31" />
  <sodipodi:namedview
     pagecolor="#ffffff"
     bordercolor="#666666"
     borderopacity="1"
     objecttolerance="10"
     gridtolerance="10"
     guidetolerance="10"
     inkscape:pageopacity="0"
     inkscape:pageshadow="2"
     inkscape:window-width="1920"
     inkscape:window-height="1121"
     id="namedview29"
     showgrid="false"
     inkscape:zoom="2.466132"
     inkscape:cx="-144.81826"
     inkscape:cy="-22.320962"
     inkscape:window-x="-9"
     inkscape:window-y="-9"
     inkscape:window-maximized="1"
     inkscape:current-layer="svg27" />
  <path
     id="Sketch001_w0000"
     d="m 11.18034,0 h 10 l 8.09017,5.8778528 3.09017,9.5105652 -3.09017,9.510565 -8.09017,5.877853 h -10 L 3.09017,24.898983 0,15.388418 3.09017,5.8778528 11.18034,0"
     stroke="#000000"
     stroke-width="0.35 px"
     style="fill:#0000ff;fill-opacity:1;fill-rule:evenodd;stroke:none;stroke-width:0.35;stroke-linecap:square;stroke-miterlimit:4;stroke-dasharray:none" />
  <path
     id="Sketch001_w0001"
     d="M 7.385255,3.283022 V 8.4726836 L 10.435662,7.4815465 12.320917,4.886716 7.385255,3.283022"
     stroke="#000000"
     stroke-width="0.35 px"
     style="fill:#ff00ff;fill-opacity:1;fill-rule:evenodd;stroke:none;stroke-width:0.35;stroke-linecap:square;stroke-miterlimit:4;stroke-dasharray:none" />
  <path
     id="Sketch001_w0002"
     d="M 16.18034,0.425326 13.129934,4.62385 16.18034,5.6149873 19.230747,4.62385 16.18034,0.425326"
     stroke="#000000"
     stroke-width="0.35 px"
     style="fill:#ff00ff;fill-opacity:1;fill-rule:evenodd;stroke:none;stroke-width:0.35;stroke-linecap:square;stroke-miterlimit:4;stroke-dasharray:none" />
  <path
     id="Sketch001_w0003"
     d="m 24.975425,3.283022 -4.935661,1.603694 1.885254,2.5948305 3.050407,0.9911371 V 3.283022"
     stroke="#000000"
     stroke-width="0.35 px"
     style="fill:#ff00ff;fill-opacity:1;fill-rule:evenodd;stroke:none;stroke-width:0.35;stroke-linecap:square;stroke-miterlimit:4;stroke-dasharray:none" />
  <path
     id="Sketch001_w0004"
     d="M 1.949594,10.764568 5,14.963093 6.885255,12.368262 V 9.1608746 L 1.949594,10.764568"
     stroke="#000000"
     stroke-width="0.35 px"
     style="fill:#ff00ff;fill-opacity:1;fill-rule:evenodd;stroke:none;stroke-width:0.35;stroke-linecap:square;stroke-miterlimit:4;stroke-dasharray:none" />
  <path
     id="Sketch001_w0005"
     d="M 1.949594,20.012268 5,15.813743 6.885255,18.408574 v 3.207387 L 1.949594,20.012268"
     stroke="#000000"
     stroke-width="0.35 px"
     style="fill:#ff00ff;fill-opacity:1;fill-rule:evenodd;stroke:none;stroke-width:0.35;stroke-linecap:square;stroke-miterlimit:4;stroke-dasharray:none" />
  <path
     id="Sketch001_w0006"
     d="m 7.385255,22.304152 v 5.189662 L 12.320917,25.89012 10.435662,23.295289 7.385255,22.304152"
     stroke="#000000"
     stroke-width="0.35 px"
     style="fill:#ff00ff;fill-opacity:1;fill-rule:evenodd;stroke:none;stroke-width:0.35;stroke-linecap:square;stroke-miterlimit:4;stroke-dasharray:none" />
  <path
     id="Sketch001_w0007"
     d="m 13.129934,26.152986 3.050406,4.198524 3.050407,-4.198524 -3.050407,-0.991137 -3.050406,0.991137"
     stroke="#000000"
     stroke-width="0.35 px"
     style="fill:#ff00ff;fill-opacity:1;fill-rule:evenodd;stroke:none;stroke-width:0.35;stroke-linecap:square;stroke-miterlimit:4;stroke-dasharray:none" />
  <path
     id="Sketch001_w0008"
     d="m 20.039764,25.89012 4.935661,1.603694 v -5.189662 l -3.050407,0.991137 -1.885255,2.594831"
     stroke="#000000"
     stroke-width="0.35 px"
     style="fill:#ff00ff;fill-opacity:1;fill-rule:evenodd;stroke:none;stroke-width:0.35;stroke-linecap:square;stroke-miterlimit:4;stroke-dasharray:none" />
  <path
     id="Sketch001_w0009"
     d="m 25.475425,18.408574 v 3.207387 l 4.935661,-1.603693 -3.050406,-4.198525 -1.885255,2.594831"
     stroke="#000000"
     stroke-width="0.35 px"
     style="fill:#ff00ff;fill-opacity:1;fill-rule:evenodd;stroke:none;stroke-width:0.35;stroke-linecap:square;stroke-miterlimit:4;stroke-dasharray:none" />
  <path
     id="Sketch001_w0010"
     d="M 25.475425,12.368262 V 9.1608746 l 4.935661,1.6036934 -3.050406,4.198525 -1.885255,-2.594831"
     stroke="#000000"
     stroke-width="0.35 px"
     style="fill:#ff00ff;fill-opacity:1;fill-rule:evenodd;stroke:none;stroke-width:0.35;stroke-linecap:square;stroke-miterlimit:4;stroke-dasharray:none" />
  <path
     id="path898"
     style="fill:#000000;fill-opacity:1;fill-rule:evenodd;stroke:none;stroke-width:0.35;stroke-linecap:square;stroke-miterlimit:4;stroke-dasharray:none;stroke-opacity:1"
     d="M 25.475425,12.368262 V 9.1608746 l 4.935661,1.6036934 -3.050406,4.198525 -1.885255,-2.594831 m 0,6.040312 v 3.207387 l 4.935661,-1.603693 -3.050406,-4.198525 -1.885255,2.594831 m -5.435661,7.481546 4.935661,1.603694 v -5.189662 l -3.050407,0.991137 -1.885255,2.594831 m -6.909829,0.262866 3.050406,4.198524 3.050407,-4.198524 -3.050407,-0.991137 -3.050406,0.991137 M 7.385255,22.304152 v 5.189662 L 12.320917,25.89012 10.435662,23.295289 7.385255,22.304152 M 1.949594,20.012268 5,15.813743 6.885255,18.408574 v 3.207387 L 1.949594,20.012268 m 0,-9.2477 L 5,14.963093 6.885255,12.368262 V 9.1608746 L 1.949594,10.764568 m 23.025831,-7.481546 -4.935661,1.603694 1.885254,2.5948305 3.050407,0.9911371 V 3.283022 M 16.18034,0.425326 13.129934,4.62385 16.18034,5.6149873 19.230747,4.62385 16.18034,0.425326 M 7.385255,3.283022 V 8.4726836 L 10.435662,7.4815465 12.320917,4.886716 7.385255,3.283022 m -5.935661,7.644006 3.241389,4.46139 -3.241389,4.46139 0.190983,0.587785 5.244678,1.704099 v 5.514582 l 0.5,0.363271 5.244678,-1.704099 3.24139,4.46139 h 0.618034 l 3.24139,-4.46139 5.244678,1.704099 0.5,-0.363271 v -5.514582 l 5.244678,-1.704099 0.190983,-0.587785 -3.241389,-4.46139 3.241389,-4.46139 -0.190983,-0.587785 -5.244678,-1.7040995 V 3.120562 l -0.5,-0.363271 L 19.730747,4.46139 16.489357,0 h -0.618034 l -3.241389,4.46139 -5.244679,-1.704099 -0.5,0.363271 V 8.6351435 L 1.640577,10.339243 Z M 12.820917,5.049176 10.744679,7.9068719 7.385255,8.9984147 v 3.5323073 l -2.076238,2.857696 2.076238,2.857696 v 3.532307 l 3.359424,1.091543 2.076238,2.857696 3.359423,-1.091542 3.359424,1.091542 2.076237,-2.857696 3.359424,-1.091543 v -3.532307 l 2.076238,-2.857696 -2.076238,-2.857696 V 8.9984147 L 21.616001,7.9068719 19.539764,5.049176 16.18034,6.1407184 12.820917,5.049176" />
</svg>
