<?xml version="1.0" encoding="UTF-8" standalone="no"?>
<svg
   xmlns:dc="http://purl.org/dc/elements/1.1/"
   xmlns:cc="http://creativecommons.org/ns#"
   xmlns:rdf="http://www.w3.org/1999/02/22-rdf-syntax-ns#"
   xmlns:svg="http://www.w3.org/2000/svg"
   xmlns="http://www.w3.org/2000/svg"
   xmlns:sodipodi="http://sodipodi.sourceforge.net/DTD/sodipodi-0.dtd"
   xmlns:inkscape="http://www.inkscape.org/namespaces/inkscape"
   width="32.36068mm"
   height="30.776836mm"
   viewBox="0 0 32.36068 30.776836"
   version="1.1"
   id="svg7"
   sodipodi:docname="tabl.svg"
   inkscape:version="1.0.2-2 (e86c870879, 2021-01-15)">
  <metadata
     id="metadata13">
    <rdf:RDF>
      <cc:Work
         rdf:about="">
        <dc:format>image/svg+xml</dc:format>
        <dc:type
           rdf:resource="http://purl.org/dc/dcmitype/StillImage" />
        <dc:title></dc:title>
      </cc:Work>
    </rdf:RDF>
  </metadata>
  <defs
     id="defs11" />
  <sodipodi:namedview
     pagecolor="#ffffff"
     bordercolor="#666666"
     borderopacity="1"
     objecttolerance="10"
     gridtolerance="10"
     guidetolerance="10"
     inkscape:pageopacity="0"
     inkscape:pageshadow="2"
     inkscape:window-width="1920"
     inkscape:window-height="1121"
     id="namedview9"
     showgrid="false"
     inkscape:zoom="6.3400884"
     inkscape:cx="61.154038"
     inkscape:cy="58.160953"
     inkscape:window-x="-9"
     inkscape:window-y="-9"
     inkscape:window-maximized="1"
     inkscape:current-layer="svg7" />
  <path
     id="Sketch_w0000"
     d="m 11.18034,0 h 10 l 8.09017,5.8778528 3.09017,9.5105652 -3.09017,9.510565 -8.09017,5.877853 h -10 L 3.09017,24.898983 0,15.388418 3.09017,5.8778528 11.18034,0"
     stroke="#000000"
     stroke-width="0.35 px"
     style="fill:#ff0080;fill-opacity:1;fill-rule:evenodd;stroke:none;stroke-width:0.35;stroke-linecap:square;stroke-miterlimit:4;stroke-dasharray:none" />
  <path
     id="Sketch_w0001"
     d="m 16.18034,30.776836 3.454915,-4.755283 5.59017,1.816356 v -5.877852 l 5.59017,-1.816356 -3.454915,-4.755283 3.454915,-4.755283 -5.59017,-1.8163559 V 2.938927 L 19.635255,4.755283 16.18034,0 12.725425,4.755283 16.18034,5.8778528 19.635255,4.755283 21.77051,7.6942092 25.225425,8.8167791 v 3.6327129 l 2.135255,2.938926 -2.135255,2.938926 v 3.632713 l -3.454915,1.12257 -2.135255,2.938926 -3.454915,-1.12257 -3.454915,1.12257 -2.135255,-2.938926 -3.454915,-1.12257 V 18.327344 L 5,15.388418 7.135255,12.449492 V 8.8167791 L 10.59017,7.6942092 12.725425,4.755283 7.135255,2.938927 V 8.8167791 L 1.545085,10.633135 5,15.388418 l -3.454915,4.755283 5.59017,1.816356 v 5.877852 l 5.59017,-1.816356 3.454915,4.755283"
     stroke="#000000"
     stroke-width="0.35 px"
     style="fill:#000080;fill-opacity:1;fill-rule:evenodd;stroke:none;stroke-width:0.35;stroke-linecap:square;stroke-miterlimit:4;stroke-dasharray:none" />
</svg>
