<?xml version="1.0" encoding="UTF-8" standalone="no"?>
<svg
   xmlns:dc="http://purl.org/dc/elements/1.1/"
   xmlns:cc="http://creativecommons.org/ns#"
   xmlns:rdf="http://www.w3.org/1999/02/22-rdf-syntax-ns#"
   xmlns:svg="http://www.w3.org/2000/svg"
   xmlns="http://www.w3.org/2000/svg"
   xmlns:sodipodi="http://sodipodi.sourceforge.net/DTD/sodipodi-0.dtd"
   xmlns:inkscape="http://www.inkscape.org/namespaces/inkscape"
   width="16.18034mm"
   height="15.388418mm"
   viewBox="0 0 16.18034 15.388418"
   version="1.1"
   id="svg12"
   sodipodi:docname="pange_straps.svg"
   inkscape:version="1.0.2-2 (e86c870879, 2021-01-15)">
  <metadata
     id="metadata18">
    <rdf:RDF>
      <cc:Work
         rdf:about="">
        <dc:format>image/svg+xml</dc:format>
        <dc:type
           rdf:resource="http://purl.org/dc/dcmitype/StillImage" />
      </cc:Work>
    </rdf:RDF>
  </metadata>
  <defs
     id="defs16" />
  <sodipodi:namedview
     pagecolor="#ffffff"
     bordercolor="#666666"
     borderopacity="1"
     objecttolerance="10"
     gridtolerance="10"
     guidetolerance="10"
     inkscape:pageopacity="0"
     inkscape:pageshadow="2"
     inkscape:window-width="1920"
     inkscape:window-height="1121"
     id="namedview14"
     showgrid="false"
     inkscape:zoom="12.983289"
     inkscape:cx="30.577021"
     inkscape:cy="29.080476"
     inkscape:window-x="-9"
     inkscape:window-y="-9"
     inkscape:window-maximized="1"
     inkscape:current-layer="svg12" />
  <path
     id="Sketch001_w0000"
     d="M 8.0901699,0 0,5.8778525 3.0901699,15.388418 H 13.09017 L 16.18034,5.8778525 8.0901699,0"
     stroke="#000000"
     stroke-width="0.35 px"
     style="fill:#008080;fill-opacity:1;fill-rule:evenodd;stroke:none;stroke-width:0.35;stroke-linecap:square;stroke-miterlimit:4;stroke-dasharray:none" />
  <path
     id="Sketch001_w0001"
     d="M 8.0901699,4.5161196 4.2950849,3.2830217 V 7.2734102 L 1.9495934,10.501702 5.7446784,11.7348 8.0901699,14.963092 10.435661,11.7348 14.230746,10.501702 11.885255,7.2734102 V 3.2830217 L 8.0901699,4.5161196"
     stroke="#000000"
     stroke-width="0.35 px"
     style="fill:#ffff80;fill-opacity:1;fill-rule:evenodd;stroke:none;stroke-width:0.35;stroke-linecap:square;stroke-miterlimit:4;stroke-dasharray:none" />
  <path
     id="path850"
     style="fill:#000000;fill-opacity:1;fill-rule:evenodd;stroke-width:0.35;stroke-linecap:square;stroke-miterlimit:4;stroke-dasharray:none"
     d="M 8.0901699,4.5161196 4.2950849,3.2830217 V 7.2734102 L 1.9495934,10.501702 5.7446784,11.7348 8.0901699,14.963092 10.435661,11.7348 14.230746,10.501702 11.885255,7.2734102 V 3.2830217 L 8.0901699,4.5161196 M 12.385255,3.1205619 v 3.9903884 l 2.345491,3.2282927 -0.190983,0.587785 -3.795084,1.233098 -2.3454921,3.228292 H 7.7811529 L 5.4356614,12.160126 1.6405764,10.927028 1.4495934,10.339243 3.7950849,7.1109503 V 3.1205619 l 0.5,-0.3632713 3.795085,1.2330978 3.7950851,-1.2330978 z" />
</svg>
