<?xml version="1.0" encoding="UTF-8" standalone="no"?>
<svg
   xmlns:dc="http://purl.org/dc/elements/1.1/"
   xmlns:cc="http://creativecommons.org/ns#"
   xmlns:rdf="http://www.w3.org/1999/02/22-rdf-syntax-ns#"
   xmlns:svg="http://www.w3.org/2000/svg"
   xmlns="http://www.w3.org/2000/svg"
   xmlns:sodipodi="http://sodipodi.sourceforge.net/DTD/sodipodi-0.dtd"
   xmlns:inkscape="http://www.inkscape.org/namespaces/inkscape"
   width="10mm"
   height="19.02113mm"
   viewBox="0 0 10 19.02113"
   version="1.1"
   id="svg14"
   sodipodi:docname="sormeh_dan_straps.svg"
   inkscape:version="1.0.2-2 (e86c870879, 2021-01-15)">
  <metadata
     id="metadata20">
    <rdf:RDF>
      <cc:Work
         rdf:about="">
        <dc:format>image/svg+xml</dc:format>
        <dc:type
           rdf:resource="http://purl.org/dc/dcmitype/StillImage" />
      </cc:Work>
    </rdf:RDF>
  </metadata>
  <defs
     id="defs18" />
  <sodipodi:namedview
     pagecolor="#ffffff"
     bordercolor="#666666"
     borderopacity="1"
     objecttolerance="10"
     gridtolerance="10"
     guidetolerance="10"
     inkscape:pageopacity="0"
     inkscape:pageshadow="2"
     inkscape:window-width="1920"
     inkscape:window-height="1121"
     id="namedview16"
     showgrid="false"
     inkscape:zoom="10.612994"
     inkscape:cx="18.897637"
     inkscape:cy="35.945444"
     inkscape:window-x="-9"
     inkscape:window-y="-9"
     inkscape:window-maximized="1"
     inkscape:current-layer="svg14" />
  <path
     id="Sketch001_w0000"
     d="M 0,0 H 10 L 6.9098301,9.5105652 10,19.02113 H 0 L 3.0901699,9.5105652 0,0"
     stroke="#000000"
     stroke-width="0.35 px"
     style="fill:#ff8080;fill-opacity:1;fill-rule:evenodd;stroke:none;stroke-width:0.35;stroke-linecap:square;stroke-miterlimit:4;stroke-dasharray:none" />
  <path
     id="Sketch001_w0008"
     style="fill:#000000;fill-opacity:1;fill-rule:evenodd;stroke:none;stroke-width:0.35;stroke-linecap:square;stroke-miterlimit:4;stroke-dasharray:none"
     d="M 5.309017,0 8.5504065,4.46139 8.3594235,5.0491752 5,6.1407181 1.6405765,5.0491752 1.4495935,4.46139 4.690983,0 Z M 4.690983,19.02113 1.4495935,14.55974 1.6405765,13.971955 5,12.880412 8.3594235,13.971955 8.5504065,14.55974 5.309017,19.02113 Z M 5,13.406143 1.9495935,14.39728 5,18.595805 8.0504065,14.39728 5,13.406143 M 5,0.4253254 1.9495935,4.6238498 5,5.614987 8.0504065,4.6238498 5,0.4253254" />
  <path
     id="path854"
     d="M 5,0.4253254 1.9495935,4.6238498 5,5.614987 8.0504065,4.6238498 5,0.4253254"
     stroke="#000000"
     stroke-width="0.35 px"
     style="fill:#0080ff;fill-opacity:1;fill-rule:evenodd;stroke:none;stroke-width:0.35;stroke-linecap:square;stroke-miterlimit:4;stroke-dasharray:none" />
  <path
     id="path856"
     d="M 5,13.406143 1.9495935,14.39728 5,18.595805 8.0504065,14.39728 5,13.406143"
     stroke="#000000"
     stroke-width="0.35 px"
     style="fill:#0080ff;fill-opacity:1;fill-rule:evenodd;stroke:none;stroke-width:0.35;stroke-linecap:square;stroke-miterlimit:4;stroke-dasharray:none" />
</svg>
